<svg width="156" height="28" viewBox="0 0 156 28" fill="none" xmlns="http://www.w3.org/2000/svg">
<g clip-path="url(#clip0_283_103)">
<mask id="mask0_283_103" style="mask-type:alpha" maskUnits="userSpaceOnUse" x="0" y="0" width="36" height="28">
<path d="M9.75562 9.66451V24.2877C10.228 24.2215 10.7126 24.1462 11.2092 24.062V8.73419C10.6883 9.0473 10.2038 9.35742 9.75562 9.66451Z" fill="url(#paint0_linear_283_103)"/>
<path d="M25.1088 1.63484C25.0967 1.61075 25.0877 1.58667 25.0816 1.56258C25.0634 1.53248 25.0483 1.49936 25.0361 1.46323C25.024 1.43312 25.0089 1.40302 24.9907 1.3729C24.9786 1.35484 24.9695 1.33376 24.9635 1.30968C24.9393 1.27355 24.918 1.24043 24.8999 1.21033C24.8938 1.2043 24.8908 1.19828 24.8908 1.19226C24.4457 0.47871 23.6553 0 22.7558 0H12.2721C10.8912 0 9.76477 1.12903 9.76477 2.50193V7.03613C10.219 6.77419 10.7095 6.50323 11.2183 6.25032V2.50193C11.2183 1.92387 11.6908 1.44516 12.2721 1.44516H22.7558C22.8285 1.45118 22.9042 1.46021 22.983 1.47226C23.0254 1.4843 23.0678 1.49635 23.1101 1.50839C23.1223 1.51441 23.1344 1.52043 23.1465 1.52646C23.195 1.54451 23.2435 1.56861 23.2918 1.59871C23.2979 1.59871 23.304 1.60172 23.3101 1.60774C23.3464 1.63182 23.3828 1.65892 23.4191 1.68903C23.4372 1.70108 23.4524 1.71312 23.4644 1.72516C23.4887 1.74925 23.5129 1.77333 23.5371 1.79742C23.5554 1.81549 23.5704 1.83354 23.5826 1.85161C23.6068 1.88172 23.628 1.91183 23.6462 1.94193C23.6522 1.95398 23.6613 1.96602 23.6734 1.97806C23.7643 2.13161 23.8097 2.31226 23.8097 2.50193V2.7729H25.2633V2.50193C25.2633 2.19484 25.2087 1.9058 25.1088 1.63484Z" fill="url(#paint1_linear_283_103)"/>
<path d="M25.2632 18.3445V3.72125C24.7969 3.78146 24.3124 3.85674 23.8097 3.94705V19.2748C24.3305 18.9617 24.8151 18.6515 25.2632 18.3445Z" fill="url(#paint2_linear_283_103)"/>
<path d="M0.0804468 14.8491C0.498342 16.0232 2.49698 16.52 5.43133 16.3755C3.88693 16.2129 2.86944 15.7522 2.58782 14.9664C1.74294 12.6091 7.92054 8.27355 16.3874 5.28387C22.9829 2.95354 29.0152 2.13161 31.7587 2.9987C29.9328 1.18322 22.6195 1.86967 14.5069 4.73289C5.65845 7.85806 -0.800769 12.3832 0.0804468 14.8491Z" fill="url(#paint3_linear_283_103)"/>
<path style="mix-blend-mode:screen" d="M5.34051 16.3846C5.37079 16.3846 5.40107 16.3815 5.43136 16.3755C3.88696 16.213 2.86947 15.7523 2.58784 14.9664C1.74297 12.6091 7.92056 8.27357 16.3875 5.28389C21.6748 3.41421 26.6077 2.52002 29.7692 2.6826C30.3325 2.65852 30.8564 2.65852 31.3409 2.6826C30.6959 2.29421 29.7057 2.07744 28.4611 2.01422C25.2088 2.1497 20.7845 3.08003 16.0968 4.73293C7.2483 7.85809 0.789078 12.3833 1.67029 14.8491C2.00642 15.7794 3.34188 16.2851 5.34051 16.3846Z" fill="url(#paint4_linear_283_103)"/>
<path d="M4.65913 14.3704C4.9771 15.2555 6.33072 15.6981 8.34752 15.7161C7.33003 15.5084 6.64868 15.111 6.43973 14.5238C5.65845 12.3381 11.3637 8.33679 19.1765 5.58195C22.992 4.23614 26.5987 3.43228 29.3877 3.22453C26.526 3.06195 22.02 3.87485 17.1869 5.58195C9.50127 8.29162 3.89602 12.2297 4.65913 14.3704Z" fill="url(#paint5_linear_283_103)"/>
<path style="mix-blend-mode:screen" d="M18.2952 5.6361C10.6096 8.35481 4.99522 12.2838 5.76742 14.4245C6.01271 15.129 6.92118 15.5535 8.30205 15.7071C7.30274 15.4994 6.64863 15.1019 6.43968 14.5238C5.65841 12.3381 11.3636 8.33675 19.1764 5.58191C22.6286 4.36256 25.9173 3.59481 28.57 3.29675C25.7992 3.48643 22.1562 4.27223 18.2952 5.6361Z" fill="url(#paint6_linear_283_103)"/>
<path d="M19.2037 2.38448C19.2037 2.60125 19.022 2.77287 18.804 2.77287C18.5859 2.77287 18.4133 2.60125 18.4133 2.38448C18.4133 2.16771 18.5859 1.99609 18.804 1.99609C19.022 1.99609 19.2037 2.16771 19.2037 2.38448Z" fill="url(#paint7_linear_283_103)"/>
<path d="M16.2239 2.77287H17.6592C17.8773 2.77287 18.0499 2.60125 18.0499 2.38448C18.0499 2.16771 17.8773 1.99609 17.6592 1.99609H16.2239C16.0058 1.99609 15.8333 2.16771 15.8333 2.38448C15.8333 2.60125 16.0058 2.77287 16.2239 2.77287Z" fill="url(#paint8_linear_283_103)"/>
<path d="M9.91914 26.3741C9.93126 26.3982 9.94034 26.4223 9.94639 26.4464C9.95851 26.4766 9.97365 26.5066 9.99181 26.5367C10.0039 26.5729 10.0191 26.606 10.0372 26.6361C10.0433 26.6541 10.0524 26.6753 10.0645 26.6993C10.0827 26.7354 10.1039 26.7686 10.1281 26.7987C10.1281 26.8047 10.1311 26.8107 10.1372 26.8167C10.5823 27.5303 11.3727 28 12.2721 28H22.7467C24.1367 28 25.2632 26.88 25.2632 25.5071V20.9728C24.809 21.2348 24.3184 21.4968 23.8096 21.7587V25.5071C23.8096 26.0851 23.3372 26.5548 22.7467 26.5548H12.2721C12.1934 26.5548 12.1176 26.5488 12.0449 26.5367C12.0025 26.5247 11.9601 26.5126 11.9178 26.5007C11.9057 26.4946 11.8935 26.4886 11.8815 26.4826C11.8269 26.4645 11.7785 26.4404 11.7361 26.4103C11.73 26.4043 11.724 26.4013 11.7179 26.4013C11.6756 26.3772 11.6362 26.35 11.5998 26.32C11.5877 26.3079 11.5725 26.2929 11.5544 26.2748C11.5302 26.2567 11.5089 26.2357 11.4908 26.2116C11.4726 26.1935 11.4575 26.1754 11.4454 26.1574C11.4212 26.1273 11.3999 26.0972 11.3818 26.0671C11.3696 26.0551 11.3605 26.043 11.3546 26.031C11.2637 25.8774 11.2092 25.6967 11.2092 25.5071V25.2361H9.75562V25.5071C9.75562 25.8141 9.81921 26.1032 9.91914 26.3741Z" fill="url(#paint9_linear_283_103)"/>
<path d="M34.9473 13.16C34.5294 11.9858 32.5218 11.4891 29.5874 11.6246C31.1409 11.7961 32.1583 12.2568 32.44 13.0426C33.2758 15.4 27.0982 19.7356 18.6404 22.7252C12.0449 25.0555 6.01261 25.8775 3.26904 25.0103C5.09506 26.8259 12.3992 26.1393 20.5209 23.2762C29.3694 20.151 35.8286 15.6168 34.9473 13.16Z" fill="url(#paint10_linear_283_103)"/>
<path style="mix-blend-mode:screen" d="M29.6875 11.6245C29.6511 11.6245 29.6178 11.6245 29.5876 11.6245C31.141 11.7961 32.1585 12.2568 32.4401 13.0425C33.2759 15.4 27.0983 19.7355 18.6405 22.7251C13.3441 24.5948 8.42018 25.489 5.25872 25.3264C4.69547 25.3505 4.16855 25.3505 3.67798 25.3264C4.33207 25.7148 5.31322 25.9316 6.56691 25.9948C9.81923 25.8593 14.2344 24.929 18.9311 23.2761C27.7706 20.151 34.2298 15.6168 33.3485 13.16C33.0216 12.2297 31.6861 11.7238 29.6875 11.6245Z" fill="url(#paint11_linear_283_103)"/>
<path d="M30.3687 13.6387C30.0508 12.7535 28.6971 12.3109 26.6712 12.2929C27.6979 12.5006 28.3792 12.889 28.5881 13.4851C29.3694 15.6619 23.6642 19.6632 15.8423 22.4271C12.0359 23.7728 8.42011 24.5677 5.6311 24.7845C8.50187 24.9471 12.9988 24.1341 17.8319 22.4271C25.5175 19.7174 31.1319 15.7794 30.3687 13.6387Z" fill="url(#paint12_linear_283_103)"/>
<path style="mix-blend-mode:screen" d="M16.7326 22.3729C24.4182 19.6542 30.0235 15.7251 29.2604 13.5755C29.0152 12.88 28.0975 12.4555 26.7257 12.3019C27.7251 12.5097 28.3792 12.9071 28.5882 13.4851C29.3695 15.6619 23.6643 19.6632 15.8423 22.4271C12.3901 23.6464 9.11055 24.4141 6.44873 24.7033C9.22864 24.5226 12.8716 23.7368 16.7326 22.3729Z" fill="url(#paint13_linear_283_103)"/>
</mask>
<g mask="url(#mask0_283_103)">
<path d="M35.4108 -0.22583H-0.0195312V28.7626H35.4108V-0.22583Z" fill="white"/>
</g>
<path d="M47.1508 7.32873C47.6922 7.22559 48.2852 7.14825 48.9298 7.09668C49.5872 7.03222 50.2383 7 50.8829 7C51.5532 7 52.2235 7.05801 52.8939 7.17403C53.5771 7.27717 54.1894 7.49631 54.7309 7.83149C55.2723 8.15379 55.7106 8.61145 56.0458 9.20442C56.3938 9.78453 56.5679 10.5452 56.5679 11.4862C56.5679 12.337 56.4197 13.059 56.1231 13.6519C55.8266 14.232 55.4334 14.709 54.9436 15.0829C54.4537 15.4568 53.8929 15.7275 53.2613 15.895C52.6425 16.0626 51.9979 16.1464 51.3276 16.1464C51.2631 16.1464 51.16 16.1464 51.0182 16.1464C50.8763 16.1464 50.7282 16.1464 50.5735 16.1464C50.4188 16.1335 50.2641 16.1206 50.1094 16.1077C49.9675 16.0948 49.8644 16.082 49.8 16.069V20.7293H47.1508V7.32873ZM51.0955 9.28177C50.8376 9.28177 50.5927 9.29463 50.3607 9.32044C50.1287 9.3333 49.9417 9.35269 49.8 9.3784V13.768C49.8515 13.7808 49.9289 13.7938 50.032 13.8066C50.1351 13.8195 50.2447 13.8324 50.3607 13.8453C50.4767 13.8453 50.5863 13.8453 50.6895 13.8453C50.8055 13.8453 50.8893 13.8453 50.9408 13.8453C51.2889 13.8453 51.6305 13.8131 51.9657 13.7486C52.3138 13.6842 52.6232 13.5682 52.8939 13.4005C53.1646 13.2201 53.3773 12.9751 53.532 12.6657C53.6995 12.3563 53.7834 11.9503 53.7834 11.4475C53.7834 11.0221 53.7061 10.674 53.5514 10.4033C53.3967 10.1197 53.1903 9.89412 52.9326 9.72647C52.6876 9.55891 52.404 9.44289 52.0817 9.3784C51.7594 9.31401 51.4307 9.28177 51.0955 9.28177ZM60.7499 17.4807C60.7499 17.9319 60.8078 18.2606 60.9238 18.4668C61.0399 18.6731 61.2268 18.7762 61.4847 18.7762C61.6394 18.7762 61.7875 18.7633 61.9294 18.7375C62.0841 18.7118 62.271 18.6537 62.4902 18.5635L62.7609 20.5359C62.5546 20.6391 62.2388 20.7421 61.8133 20.8453C61.3879 20.9485 60.9497 21 60.4984 21C59.7636 21 59.2029 20.8324 58.8162 20.4972C58.4294 20.1492 58.236 19.5819 58.236 18.7956V7.19337H60.7499V17.4807ZM63.7847 11.6215C64.3003 11.3895 64.9127 11.209 65.6217 11.0801C66.3307 10.9383 67.072 10.8674 67.8455 10.8674C68.5158 10.8674 69.0765 10.9512 69.5278 11.1187C69.979 11.2734 70.3335 11.499 70.5913 11.7956C70.8621 12.0921 71.0489 12.4466 71.1521 12.8591C71.2681 13.2716 71.3261 13.7357 71.3261 14.2513C71.3261 14.8186 71.3068 15.3923 71.2681 15.9724C71.2294 16.5396 71.2036 17.1004 71.1907 17.6546C71.1907 18.209 71.2101 18.7505 71.2488 19.279C71.2875 19.7947 71.3841 20.2845 71.5388 20.7487H69.4891L69.0831 19.4144H68.9863C68.7285 19.814 68.3675 20.162 67.9034 20.4586C67.4522 20.7421 66.8657 20.884 66.1438 20.884C65.6926 20.884 65.2865 20.8195 64.9255 20.6906C64.5646 20.5488 64.2552 20.3554 63.9974 20.1105C63.7395 19.8526 63.5397 19.5562 63.398 19.221C63.2561 18.8729 63.1852 18.4862 63.1852 18.0608C63.1852 17.4678 63.3141 16.9715 63.572 16.5718C63.8427 16.1593 64.223 15.8305 64.7129 15.5856C65.2156 15.3278 65.8086 15.1538 66.4919 15.0635C67.188 14.9604 67.9615 14.9282 68.8123 14.9669C68.9025 14.2449 68.851 13.7293 68.6576 13.4199C68.4643 13.0976 68.0323 12.9364 67.362 12.9364C66.8592 12.9364 66.3242 12.988 65.7571 13.0911C65.2027 13.1943 64.745 13.3297 64.3841 13.4972L63.7847 11.6215ZM66.9753 18.8149C67.478 18.8149 67.8776 18.7054 68.1742 18.4862C68.4707 18.2541 68.6898 18.0092 68.8316 17.7514V16.4944C68.432 16.4558 68.0453 16.4493 67.6714 16.4751C67.3105 16.501 66.9881 16.5589 66.7045 16.6491C66.421 16.7394 66.1954 16.8683 66.0278 17.0359C65.8601 17.2035 65.7764 17.4162 65.7764 17.674C65.7764 18.035 65.8795 18.3186 66.0858 18.5249C66.3049 18.7182 66.6014 18.8149 66.9753 18.8149ZM79.3528 20.7293V15.2376C79.3528 14.4512 79.2367 13.884 79.0047 13.5359C78.7855 13.1878 78.4053 13.0138 77.8639 13.0138C77.3868 13.0138 76.9808 13.1556 76.6456 13.4392C76.3233 13.7099 76.0913 14.0515 75.9494 14.4641V20.7293H73.4356V11.0608H75.4274L75.7174 12.337H75.7948C76.0913 11.9245 76.4845 11.5635 76.9744 11.2541C77.4642 10.9448 78.0959 10.7901 78.8694 10.7901C79.3463 10.7901 79.7718 10.8545 80.1456 10.9834C80.5194 11.1123 80.8352 11.3251 81.0931 11.6215C81.351 11.918 81.5443 12.3242 81.6732 12.8398C81.8021 13.3425 81.8666 13.9678 81.8666 14.7154V20.7293H79.3528ZM91.7077 19.8977C91.3209 20.2071 90.7923 20.4714 90.122 20.6906C89.4646 20.8968 88.7619 21 88.0142 21C86.4544 21 85.3135 20.5488 84.5916 19.6464C83.8697 18.7311 83.5088 17.4807 83.5088 15.895C83.5088 14.1934 83.9148 12.9171 84.727 12.0663C85.5391 11.2155 86.68 10.7901 88.1496 10.7901C88.6395 10.7901 89.1165 10.8545 89.5806 10.9834C90.0447 11.1123 90.4571 11.3251 90.8182 11.6215C91.1791 11.918 91.4691 12.3176 91.6883 12.8204C91.9075 13.3232 92.0171 13.9485 92.0171 14.6961C92.0171 14.9668 91.9977 15.2569 91.959 15.5662C91.9332 15.8756 91.8881 16.198 91.8237 16.5331H86.0226C86.0613 17.3453 86.2675 17.9576 86.6414 18.3702C87.0281 18.7827 87.6469 18.9889 88.4977 18.9889C89.0262 18.9889 89.4967 18.9116 89.9093 18.7569C90.3347 18.5894 90.6569 18.4217 90.8761 18.2541L91.7077 19.8977ZM88.111 12.8011C87.4535 12.8011 86.9636 13.0009 86.6414 13.4005C86.332 13.7872 86.145 14.3094 86.0805 14.9669H89.6772C89.7288 14.2707 89.6193 13.7357 89.3485 13.3618C89.0907 12.988 88.6781 12.8011 88.111 12.8011ZM92.7869 11.0608H94.1211V9.24309L96.6349 8.52757V11.0608H98.994V13.1878H96.6349V16.9006C96.6349 17.5709 96.6994 18.0543 96.8283 18.3508C96.9701 18.6345 97.2279 18.7762 97.6018 18.7762C97.8596 18.7762 98.0787 18.7505 98.2592 18.6988C98.4526 18.6473 98.6654 18.57 98.8974 18.4668L99.3421 20.4005C98.9941 20.5682 98.588 20.7099 98.1239 20.826C97.6599 20.942 97.1892 21 96.7123 21C95.8228 21 95.1653 20.7744 94.7399 20.3232C94.3273 19.8591 94.1211 19.105 94.1211 18.0608V13.1878H92.7869V11.0608ZM105.483 7.32873C106.025 7.22559 106.617 7.14825 107.262 7.09668C107.919 7.03222 108.57 7 109.215 7C109.885 7 110.555 7.05801 111.226 7.17403C111.909 7.27717 112.522 7.49631 113.063 7.83149C113.605 8.15379 114.043 8.61145 114.378 9.20442C114.726 9.78453 114.9 10.5452 114.9 11.4862C114.9 12.337 114.752 13.059 114.456 13.6519C114.158 14.232 113.766 14.709 113.275 15.0829C112.786 15.4568 112.225 15.7275 111.594 15.895C110.975 16.0626 110.33 16.1464 109.66 16.1464C109.595 16.1464 109.492 16.1464 109.351 16.1464C109.208 16.1464 109.06 16.1464 108.906 16.1464C108.751 16.1335 108.596 16.1206 108.442 16.1077C108.3 16.0948 108.196 16.082 108.132 16.069V20.7293H105.483V7.32873ZM109.428 9.28177C109.17 9.28177 108.925 9.29463 108.693 9.32044C108.461 9.3333 108.274 9.35269 108.132 9.3784V13.768C108.183 13.7808 108.261 13.7938 108.364 13.8066C108.467 13.8195 108.577 13.8324 108.693 13.8453C108.809 13.8453 108.919 13.8453 109.021 13.8453C109.138 13.8453 109.221 13.8453 109.273 13.8453C109.621 13.8453 109.962 13.8131 110.298 13.7486C110.645 13.6842 110.955 13.5682 111.226 13.4005C111.496 13.2201 111.709 12.9751 111.864 12.6657C112.032 12.3563 112.115 11.9503 112.115 11.4475C112.115 11.0221 112.038 10.674 111.883 10.4033C111.728 10.1197 111.522 9.89412 111.264 9.72647C111.019 9.55891 110.736 9.44289 110.413 9.3784C110.091 9.31401 109.763 9.28177 109.428 9.28177ZM122.407 20.7293V15.2376C122.407 14.4512 122.298 13.884 122.079 13.5359C121.86 13.1878 121.46 13.0138 120.881 13.0138C120.455 13.0138 120.062 13.162 119.7 13.4586C119.353 13.7421 119.121 14.1096 119.004 14.5607V20.7293H116.491V7.19337H119.004V12.1436H119.081C119.391 11.7311 119.772 11.4024 120.223 11.1574C120.674 10.9125 121.247 10.7901 121.943 10.7901C122.434 10.7901 122.865 10.8545 123.239 10.9834C123.613 11.1123 123.922 11.3251 124.167 11.6215C124.425 11.918 124.612 12.3242 124.728 12.8398C124.857 13.3425 124.922 13.9678 124.922 14.7154V20.7293H122.407ZM126.564 15.895C126.564 14.2579 126.964 13.0009 127.763 12.1243C128.562 11.2348 129.683 10.7901 131.128 10.7901C131.901 10.7901 132.571 10.9125 133.139 11.1574C133.705 11.4024 134.176 11.7505 134.55 12.2016C134.924 12.64 135.201 13.175 135.382 13.8066C135.575 14.4383 135.671 15.1344 135.671 15.895C135.671 17.5322 135.272 18.7956 134.473 19.6851C133.686 20.5617 132.571 21 131.128 21C130.354 21 129.683 20.8775 129.117 20.6325C128.549 20.3876 128.072 20.046 127.685 19.6077C127.311 19.1565 127.028 18.6151 126.834 17.9834C126.655 17.3518 126.564 16.6556 126.564 15.895ZM129.155 15.895C129.155 16.3204 129.194 16.7136 129.271 17.0745C129.349 17.4356 129.464 17.7514 129.619 18.0221C129.774 18.2928 129.973 18.5055 130.219 18.6602C130.477 18.802 130.779 18.8729 131.128 18.8729C131.785 18.8729 132.275 18.6345 132.597 18.1574C132.92 17.6805 133.08 16.9264 133.08 15.895C133.08 15.0055 132.932 14.29 132.635 13.7486C132.339 13.1943 131.837 12.9171 131.128 12.9171C130.509 12.9171 130.025 13.1492 129.677 13.6133C129.329 14.0773 129.155 14.838 129.155 15.895ZM143.332 20.7293V15.2376C143.332 14.4512 143.215 13.884 142.983 13.5359C142.764 13.1878 142.383 13.0138 141.842 13.0138C141.365 13.0138 140.959 13.1556 140.624 13.4392C140.302 13.7099 140.07 14.0515 139.928 14.4641V20.7293H137.414V11.0608H139.406L139.696 12.337H139.774C140.07 11.9245 140.463 11.5635 140.953 11.2541C141.442 10.9448 142.074 10.7901 142.847 10.7901C143.325 10.7901 143.75 10.8545 144.124 10.9834C144.498 11.1123 144.813 11.3251 145.071 11.6215C145.33 11.918 145.522 12.3242 145.652 12.8398C145.781 13.3425 145.845 13.9678 145.845 14.7154V20.7293H143.332ZM155.686 19.8977C155.299 20.2071 154.771 20.4714 154.1 20.6906C153.443 20.8968 152.74 21 151.993 21C150.433 21 149.291 20.5488 148.57 19.6464C147.848 18.7311 147.487 17.4807 147.487 15.895C147.487 14.1934 147.893 12.9171 148.706 12.0663C149.517 11.2155 150.659 10.7901 152.128 10.7901C152.617 10.7901 153.094 10.8545 153.559 10.9834C154.023 11.1123 154.436 11.3251 154.796 11.6215C155.158 11.918 155.447 12.3176 155.667 12.8204C155.886 13.3232 155.996 13.9485 155.996 14.6961C155.996 14.9668 155.976 15.2569 155.937 15.5662C155.911 15.8756 155.866 16.198 155.802 16.5331H150.001C150.04 17.3453 150.246 17.9576 150.619 18.3702C151.006 18.7827 151.625 18.9889 152.476 18.9889C153.004 18.9889 153.475 18.9116 153.888 18.7569C154.313 18.5894 154.635 18.4217 154.854 18.2541L155.686 19.8977ZM152.089 12.8011C151.432 12.8011 150.942 13.0009 150.619 13.4005C150.31 13.7872 150.123 14.3094 150.059 14.9669H153.656C153.707 14.2707 153.598 13.7357 153.327 13.3618C153.069 12.988 152.657 12.8011 152.089 12.8011Z" fill="white"/>
</g>
<defs>
<linearGradient id="paint0_linear_283_103" x1="94.6794" y1="8.73419" x2="94.6794" y2="24.2877" gradientUnits="userSpaceOnUse">
<stop stop-color="#05EAFF"/>
<stop offset="1" stop-color="#001AC3"/>
</linearGradient>
<linearGradient id="paint1_linear_283_103" x1="25.2633" y1="7.03613" x2="9.76477" y2="7.03613" gradientUnits="userSpaceOnUse">
<stop stop-color="#F12711"/>
<stop offset="1" stop-color="#F5AF19"/>
</linearGradient>
<linearGradient id="paint2_linear_283_103" x1="-59.6513" y1="19.2748" x2="-59.6513" y2="3.72125" gradientUnits="userSpaceOnUse">
<stop stop-color="#05EAFF"/>
<stop offset="1" stop-color="#001AC3"/>
</linearGradient>
<linearGradient id="paint3_linear_283_103" x1="34.7659" y1="7.76773" x2="5.29463" y2="24.2883" gradientUnits="userSpaceOnUse">
<stop stop-color="#F12711"/>
<stop offset="1" stop-color="#F5AF19"/>
</linearGradient>
<linearGradient id="paint4_linear_283_103" x1="34.6296" y1="8.26454" x2="6.66234" y2="23.9468" gradientUnits="userSpaceOnUse">
<stop/>
<stop offset="1" stop-color="#F5AF19"/>
</linearGradient>
<linearGradient id="paint5_linear_283_103" x1="28.7699" y1="8.51744" x2="9.81115" y2="24.6127" gradientUnits="userSpaceOnUse">
<stop stop-color="#001AC3"/>
<stop offset="1" stop-color="#05EAFF"/>
</linearGradient>
<linearGradient id="paint6_linear_283_103" x1="28.5518" y1="8.97804" x2="10.6689" y2="24.1549" gradientUnits="userSpaceOnUse">
<stop/>
<stop offset="1" stop-color="#05EAFF"/>
</linearGradient>
<linearGradient id="paint7_linear_283_103" x1="15.6152" y1="1.99609" x2="19.34" y2="1.99609" gradientUnits="userSpaceOnUse">
<stop stop-color="#F5AF19"/>
<stop offset="1" stop-color="#F12711"/>
</linearGradient>
<linearGradient id="paint8_linear_283_103" x1="15.6152" y1="1.99609" x2="19.3399" y2="1.99609" gradientUnits="userSpaceOnUse">
<stop stop-color="#F5AF19"/>
<stop offset="1" stop-color="#F12711"/>
</linearGradient>
<linearGradient id="paint9_linear_283_103" x1="9.75562" y1="20.9728" x2="25.2632" y2="20.9728" gradientUnits="userSpaceOnUse">
<stop stop-color="#F12711"/>
<stop offset="1" stop-color="#F5AF19"/>
</linearGradient>
<linearGradient id="paint10_linear_283_103" x1="0.252922" y1="20.2413" x2="29.7241" y2="3.72075" gradientUnits="userSpaceOnUse">
<stop stop-color="#F12711"/>
<stop offset="1" stop-color="#F5AF19"/>
</linearGradient>
<linearGradient id="paint11_linear_283_103" x1="0.389317" y1="19.7445" x2="28.3656" y2="4.06226" gradientUnits="userSpaceOnUse">
<stop/>
<stop offset="1" stop-color="#F5AF19"/>
</linearGradient>
<linearGradient id="paint12_linear_283_103" x1="6.25795" y1="19.4915" x2="25.2167" y2="3.3963" gradientUnits="userSpaceOnUse">
<stop stop-color="#001AC3"/>
<stop offset="1" stop-color="#05EAFF"/>
</linearGradient>
<linearGradient id="paint13_linear_283_103" x1="6.4669" y1="19.031" x2="24.3498" y2="3.84504" gradientUnits="userSpaceOnUse">
<stop/>
<stop offset="1" stop-color="#05EAFF"/>
</linearGradient>
<clipPath id="clip0_283_103">
<rect width="156" height="28" fill="white"/>
</clipPath>
</defs>
</svg>
